<svg width="29" height="30" viewBox="0 0 29 30" fill="none" xmlns="http://www.w3.org/2000/svg">
<path d="M14.5 2.75C18.3667 2.75 18.85 2.75 20.4208 2.875C24.4083 3 26.2208 5 26.3417 9C26.4625 10.625 26.4625 11 26.4625 15C26.4625 19 26.4625 19.5 26.3417 21C26.2208 25 24.2875 27 20.4208 27.125C18.85 27.25 18.4875 27.25 14.5 27.25C10.6333 27.25 10.15 27.25 8.7 27.125C4.7125 27 2.9 25 2.77917 21C2.65833 19.375 2.65833 19 2.65833 15C2.65833 11 2.65833 10.5 2.77917 9C2.9 5 4.83333 3 8.7 2.875C10.15 2.75 10.6333 2.75 14.5 2.75ZM14.5 0C10.5125 0 10.0292 0 8.57917 0.125C3.2625 0.375 0.3625 3.375 0.120833 8.875C0 10.375 0 10.875 0 15C0 19.125 0 19.625 0.120833 21.125C0.3625 26.625 3.2625 29.625 8.57917 29.875C10.0292 30 10.5125 30 14.5 30C18.4875 30 18.9708 30 20.4208 29.875C25.7375 29.625 28.6375 26.625 28.8792 21.125C29 19.625 29 19.125 29 15C29 10.875 29 10.375 28.8792 8.875C28.6375 3.375 25.7375 0.375 20.4208 0.125C18.9708 0 18.4875 0 14.5 0ZM14.5 7.25C10.3917 7.25 7.00833 10.75 7.00833 15C7.00833 19.25 10.3917 22.75 14.5 22.75C18.6083 22.75 21.9917 19.25 21.9917 15C21.9917 10.75 18.6083 7.25 14.5 7.25ZM14.5 20C11.8417 20 9.66667 17.75 9.66667 15C9.66667 12.25 11.8417 10 14.5 10C17.1583 10 19.3333 12.25 19.3333 15C19.3333 17.75 17.1583 20 14.5 20ZM22.2333 5.25C21.2667 5.25 20.5417 6 20.5417 7C20.5417 8 21.2667 8.75 22.2333 8.75C23.2 8.75 23.925 8 23.925 7C23.925 6 23.2 5.25 22.2333 5.25Z" fill="white"/>
</svg>
