<svg width="38" height="28" viewBox="0 0 38 28" fill="none" xmlns="http://www.w3.org/2000/svg">
<path d="M17.8899 18.4988C16.2176 19.3215 14.25 18.1251 14.25 16.2856V11.8314C14.25 9.99191 16.2176 8.79552 17.8899 9.61815L22.4174 11.8453C24.2712 12.7572 24.2712 15.3598 22.4174 16.2717L17.8899 18.4988Z" fill="white"/>
<path fill-rule="evenodd" clip-rule="evenodd" d="M0 14.0584C0 23.7163 0.791667 27.299 6.96667 27.7663C12.6667 28.0779 25.3333 28.0779 31.0333 27.7663C37.2083 27.4548 38 23.7163 38 14.0584C38 4.40056 37.2083 0.817803 31.0333 0.350487C25.3333 -0.116829 12.6667 -0.116829 6.96667 0.350487C0.791667 0.817803 0 4.40056 0 14.0584ZM30.8361 2.67904L30.8512 2.68018C32.1903 2.78152 32.9974 3.0374 33.5113 3.33867C33.9753 3.61066 34.3462 4.00325 34.6596 4.70161C34.9979 5.45568 35.2563 6.54304 35.4163 8.13739C35.575 9.71919 35.625 11.6593 35.625 14.0584C35.625 16.4572 35.575 18.4079 35.4161 20.003C35.2559 21.6114 34.9968 22.7152 34.6564 23.4807C34.3403 24.1916 33.9707 24.5781 33.5233 24.8369C33.0272 25.1239 32.2378 25.3659 30.9117 25.4328L30.9016 25.4334C25.298 25.7396 12.7495 25.7401 7.12444 25.4348C5.79991 25.3322 4.99952 25.0776 4.48867 24.7782C4.02465 24.5062 3.65378 24.1136 3.34043 23.4152C3.00207 22.6611 2.74367 21.5738 2.58369 19.9794C2.42498 18.3976 2.375 16.4576 2.375 14.0584C2.375 11.6593 2.42498 9.71919 2.58369 8.13739C2.74367 6.54304 3.00207 5.45568 3.34043 4.70161C3.65378 4.00325 4.02465 3.61066 4.48867 3.33867C5.00264 3.0374 5.80972 2.78152 7.14882 2.68018L7.1639 2.67899C12.7326 2.22244 25.2674 2.22249 30.8361 2.67904Z" fill="white"/>
</svg>
