<svg width="505" height="106" viewBox="0 0 505 106" fill="none" xmlns="http://www.w3.org/2000/svg">
<path fill-rule="evenodd" clip-rule="evenodd" d="M204.97 105.016C223.402 105.016 239.53 95.944 248.17 81.688L228.298 70.168C223.978 77.944 215.194 82.552 204.97 82.552C187.114 82.552 175.594 70.6 175.594 52.6C175.594 34.6 187.114 22.648 204.97 22.648C215.194 22.648 223.834 27.256 228.298 35.032L248.17 23.512C239.386 9.25602 223.258 0.184021 204.97 0.184021C174.586 0.184021 152.554 22.936 152.554 52.6C152.554 82.264 174.586 105.016 204.97 105.016ZM78.4 103H53.632L34.624 69.88H23.68V103H0.640015V49.72H29H40.96C47.296 49.72 52.48 44.104 52.48 36.76C52.48 29.416 47.296 23.8 40.96 23.8H23.68H0.640015L0.640015 2.20002H40.96C60.112 2.20002 75.52 17.608 75.52 36.76C75.52 49.144 68.032 60.376 56.944 65.992L78.4 103ZM139.594 70.312H84.8744V49.576H139.594V70.312ZM306.166 70.312V31H327.766V103H306.166V96.232C302.278 101.56 295.078 105.016 285.574 105.016C271.03 105.016 258.646 94.648 258.646 75.208V31H280.246V72.04C280.246 80.968 285.862 85.144 292.774 85.144C300.694 85.144 306.166 80.536 306.166 70.312ZM386.664 28.984C377.016 28.984 369.96 32.296 365.208 37.768V2.20002H343.608V103H365.208V96.232C369.96 101.704 377.016 105.016 386.664 105.016C405.528 105.016 421.08 88.456 421.08 67C421.08 45.544 405.528 28.984 386.664 28.984ZM382.344 84.568C372.408 84.568 365.208 77.8 365.208 67C365.208 56.2 372.408 49.432 382.344 49.432C392.28 49.432 399.48 56.2 399.48 67C399.48 77.8 392.28 84.568 382.344 84.568ZM503.742 75.64H452.622C455.358 83.128 461.982 85.72 469.902 85.72C475.806 85.72 480.846 83.416 483.726 80.248L501.006 90.184C493.95 99.976 483.294 105.016 469.614 105.016C444.99 105.016 429.726 88.456 429.726 67C429.726 45.544 445.278 28.984 468.03 28.984C489.054 28.984 504.606 45.256 504.606 67C504.606 70.024 504.318 72.904 503.742 75.64ZM467.886 48.136C459.678 48.136 454.206 52.168 452.19 59.512H483.15C480.846 51.16 474.366 48.136 467.886 48.136Z" fill="white"/>
</svg>
