<svg width="224" height="37" viewBox="0 0 224 37" fill="none" xmlns="http://www.w3.org/2000/svg">
<path fill-rule="evenodd" clip-rule="evenodd" d="M2.59101 9.20699C3.32956 9.85096 4.46846 10.4158 5.37318 10.922C6.17807 11.3723 7.47896 12.3003 8.34099 12.415C8.99972 11.3607 10.2627 9.8101 11.1605 9.16818C11.3165 9.05664 11.3389 9.05177 11.4777 8.94533C16.1351 5.3725 21.9439 6.04113 26.423 9.81999C26.9406 10.2566 26.9394 10.3961 27.2512 10.78C29.2372 13.2245 30.0601 15.333 30.0641 18.4302C30.0671 20.6865 29.5846 22.1973 28.5303 24.0651C28.1762 24.6922 27.8872 25.0012 27.533 25.5358C27.1029 26.1851 25.7682 27.3935 25.0001 27.9409C21.7825 30.234 17.0506 30.6834 13.471 28.9303C12.2499 28.3322 11.3772 27.591 10.5176 26.9604L8.47436 24.4677C8.26323 24.2353 8.42361 24.4069 8.17611 24.2122C7.82658 24.3063 3.07574 26.8771 2.53296 27.5152C2.79728 28.3287 4.45819 30.4802 4.90381 30.9255C5.65803 31.6794 7.16975 33.0171 8.06229 33.5555C8.49057 33.8139 8.79255 34.0208 9.25567 34.2997C15.3038 37.9435 24.0988 37.3338 29.5711 32.9499C29.6769 32.8652 29.6792 32.8296 29.8613 32.6928L33.5999 28.6987C36.8647 23.9806 37.8163 17.2092 35.583 11.8412C34.8618 10.108 34.3347 8.86354 33.2187 7.43879L31.954 5.80123C31.6636 5.47354 31.3159 5.13801 30.992 4.83535C24.9825 -0.778056 15.0154 -1.68148 8.1014 3.06069L6.43873 4.29447C5.29907 5.5214 5.04137 5.46912 3.64112 7.30229C3.20082 7.87871 2.67988 8.55518 2.59101 9.20699Z" fill="white"/>
<path fill-rule="evenodd" clip-rule="evenodd" d="M200.686 27.7206L205.828 27.7435C205.92 25.6663 205.069 14.0759 205.491 13.3193C205.623 13.7165 205.815 14.5078 205.996 15.0842C206.169 15.6401 206.383 16.1912 206.575 16.8431C207.611 20.3719 209.141 24.0354 210.121 27.7481L214.619 27.7406L219.294 13.3207L218.883 27.7409C220.048 27.7434 223.098 27.9045 223.983 27.6375L224 8.93689C223.222 8.68186 216.651 8.70445 215.747 8.91201C215.316 10.4275 212.683 20.0546 212.32 20.5524C211.988 19.7209 211.697 18.5945 211.474 17.8334C211.151 16.7287 210.903 15.8915 210.579 14.8354C209.955 12.8012 209.381 11.0084 208.782 8.89466C207.258 8.63392 202.425 8.75581 200.694 8.84019L200.686 27.7206Z" fill="white"/>
<path fill-rule="evenodd" clip-rule="evenodd" d="M187.921 13.267C188.907 13.0446 191.14 13.0513 192.031 13.4262C193.121 13.8845 193.212 14.9952 193.23 16.3624C193.27 19.2212 193.787 22.7608 191.655 23.3193C190.71 23.5668 188.583 23.5887 187.665 23.2315C186.567 22.8042 186.394 21.9282 186.352 20.3594C186.315 18.9586 186.3 17.3427 186.361 15.9479C186.419 14.5877 186.618 13.5611 187.921 13.267ZM181.078 16.2275C181.078 19.3231 180.664 23.0143 182.13 25.3465C184.282 28.7673 192.991 28.5526 196.059 26.6876C196.919 26.1647 197.399 25.6247 197.855 24.5893C198.889 22.2367 198.554 18.2766 198.554 15.4016C198.554 9.13157 193.924 8.6571 189.056 8.6571C187.589 8.6571 185.43 8.95208 184.128 9.61607L183.23 10.1174C181.303 11.564 181.078 13.8765 181.078 16.2275Z" fill="white"/>
<path fill-rule="evenodd" clip-rule="evenodd" d="M125.755 23.6326L125.758 27.6188C127.027 28.206 129.619 27.9947 130.861 27.4406C131.966 26.9479 131.826 26.8955 132.539 26.1874C132.971 25.7578 133.328 25.0636 133.555 24.2947C134.345 21.6277 133.904 16.4921 133.975 13.3079L139.225 13.3046L139.245 20.3571C139.244 22.6244 139.089 25.5279 139.284 27.7182L144.394 27.7433L144.44 8.82274L129.092 8.82068C129.082 10.3325 129.215 21.6311 128.965 22.5252C128.532 24.0753 127.119 23.4364 125.755 23.6326Z" fill="white"/>
<path fill-rule="evenodd" clip-rule="evenodd" d="M163.609 27.636C164.4 27.8777 167.778 27.8073 168.695 27.6925L168.729 20.3811C170.55 20.3608 169.803 20.0847 171.943 23.0009C172.652 23.9664 173.215 24.8279 173.877 25.7466C175.4 27.8596 175.016 27.7652 176.666 27.7459C178.296 27.7268 179.933 27.7645 181.562 27.7353C181.369 27.0203 180.959 26.6603 180.327 25.7968C180.154 25.5605 180.006 25.4112 179.833 25.1897L174.543 18.0325L180.198 10.2447C180.607 9.69116 180.846 9.44784 181.035 8.84685C179.642 8.77663 176.084 8.67673 174.838 8.89943L170.06 15.8667L168.77 15.8786L168.724 8.86838C167.744 8.757 164.433 8.67339 163.599 8.93664L163.609 27.636Z" fill="white"/>
<path fill-rule="evenodd" clip-rule="evenodd" d="M50.6193 15.2111L55.8958 15.2257C56.0998 13.1197 56.9937 12.8182 59.4829 12.9211C62.3964 13.0415 61.7485 15.3233 62.0408 16.3237L57.2708 16.4038L57.2645 19.8483C59.0211 19.9996 60.2984 19.9233 62.0462 19.9511C61.7467 20.9906 62.015 21.9189 61.4361 22.8348C60.6916 24.0127 57.2436 23.9384 56.4872 23.2444C55.7657 22.5825 55.9849 21.8063 55.8835 20.8421L50.6199 20.8286C50.4847 22.1378 50.6204 23.3325 51.0078 24.5832C51.3337 25.6356 51.8426 26.3513 52.5569 26.7859C54.3561 27.8805 56.2865 27.9868 58.6958 27.9842C67.8012 27.9745 67.2282 24.804 67.2277 17.0534C67.2276 15.838 67.2817 14.452 67.0258 13.3315C66.0187 8.92043 62.5903 8.6571 58.2828 8.6571C54.4584 8.6571 50.4471 10.7564 50.6193 15.2111Z" fill="white"/>
<path fill-rule="evenodd" clip-rule="evenodd" d="M74.5313 13.0818C79.0098 12.9864 80.037 12.6464 80.036 15.6768C80.0351 18.5776 79.5036 18.4643 74.5259 18.3014L74.5313 13.0818ZM69.4084 27.6761C70.2638 27.8189 73.8549 27.8288 74.5021 27.6503L74.5271 22.5161C79.6507 22.3547 84.5026 23.7157 85.2243 18.1681C85.4143 16.7081 85.4677 14.7353 85.2026 13.3227C84.9047 11.7351 84.5448 10.8092 83.525 9.9751C82.5557 9.1823 80.9167 8.91205 79.4836 8.83513C77.6536 8.73691 70.9194 8.6097 69.4118 8.89684L69.4084 27.6761Z" fill="white"/>
<path fill-rule="evenodd" clip-rule="evenodd" d="M110.613 10.0329C110.614 15.5839 110.487 22.2169 110.627 27.6325C112.638 27.9199 122.084 27.7402 124.39 27.7394L124.386 23.5127L115.785 23.4804L115.727 20.0027C118.135 19.8851 121.102 20.0072 123.684 19.9554L123.66 16.4108L115.776 16.3805L115.755 13.0992C118.413 13.0031 121.704 13.1747 124.179 13.0363L124.237 8.90567C121.893 8.73478 111.766 8.56618 110.614 8.94561L110.613 10.0329Z" fill="white"/>
<path fill-rule="evenodd" clip-rule="evenodd" d="M147.088 9.75763L147.096 27.6338C148.005 27.9172 158.413 27.7947 160.883 27.7207L160.884 23.5079L152.265 23.4875L152.21 19.9841L160.162 19.9741C160.258 19.1449 160.314 17.1389 160.113 16.4014L152.254 16.3802L152.212 13.079C154.412 13.068 158.66 13.1747 160.666 13.0386L160.725 8.90337C158.062 8.69101 148.84 8.77805 147.084 8.88602L147.088 9.75763Z" fill="white"/>
<path fill-rule="evenodd" clip-rule="evenodd" d="M93.8083 13.3362L98.8731 13.2999L98.8856 27.6569C99.6965 27.8286 103.258 27.842 103.967 27.6501L103.995 13.3208L109.002 13.3023L109.082 8.81873L93.7988 8.81926L93.8083 13.3362Z" fill="white"/>
<path fill-rule="evenodd" clip-rule="evenodd" d="M1.43105 25.0656C2.05753 24.8683 7.54768 21.6611 8.66954 20.9798L13.0597 18.473C12.7789 17.925 12.4269 17.8354 11.7768 17.4614L2.5991 12.1542C2.57719 12.142 2.54165 12.1248 2.51928 12.1129C1.83392 11.7465 1.89433 11.6344 1.24556 11.6129C-0.305107 15.9257 -0.432398 20.009 1.00156 24.346C1.094 24.6256 1.06266 24.5529 1.14932 24.7016C1.36235 25.0672 1.29791 24.92 1.43105 25.0656Z" fill="white"/>
<path fill-rule="evenodd" clip-rule="evenodd" d="M17.2328 13.0652C10.4177 14.5692 12.3999 24.9831 19.6039 23.5604C23.626 22.766 25.558 17.2604 21.5655 13.9717C20.5686 13.1507 18.7096 12.7394 17.2328 13.0652Z" fill="white"/>
<path fill-rule="evenodd" clip-rule="evenodd" d="M92.5585 18.2923C92.5585 14.872 87.3624 15.0511 87.4995 18.4363C87.6318 21.7022 92.5585 21.6777 92.5585 18.2923Z" fill="white"/>
</svg>
